<svg height="512pt" viewBox="0 0 512 512" width="512pt" xmlns="http://www.w3.org/2000/svg"><path d="m256 0c-140.96875 0-256 115.050781-256 256 0 140.96875 115.050781 256 256 256 140.96875 0 256-115.050781 256-256 0-140.96875-115.050781-256-256-256zm0 482c-124.617188 0-226-101.382812-226-226s101.382812-226 226-226 226 101.382812 226 226-101.382812 226-226 226zm0 0"/><path d="m125.394531 236.605469c5.855469 5.859375 15.355469 5.859375 21.210938 0l19.394531-19.390625 19.394531 19.390625c5.855469 5.859375 15.355469 5.859375 21.210938 0 5.859375-5.855469 5.859375-15.351563 0-21.210938l-19.390625-19.394531 19.390625-19.394531c5.859375-5.859375 5.859375-15.355469 0-21.210938-5.855469-5.859375-15.351563-5.859375-21.210938 0l-19.394531 19.390625-19.394531-19.390625c-5.855469-5.859375-15.355469-5.859375-21.210938 0-5.859375 5.855469-5.859375 15.351563 0 21.210938l19.390625 19.394531-19.390625 19.394531c-5.859375 5.855469-5.859375 15.355469 0 21.210938zm0 0"/><path d="m305.394531 236.605469c5.855469 5.859375 15.355469 5.859375 21.210938 0l19.394531-19.390625 19.394531 19.390625c5.855469 5.859375 15.355469 5.859375 21.210938 0 5.859375-5.855469 5.859375-15.351563 0-21.210938l-19.390625-19.394531 19.390625-19.394531c5.859375-5.859375 5.859375-15.355469 0-21.210938-5.855469-5.859375-15.351563-5.859375-21.210938 0l-19.394531 19.390625-19.394531-19.390625c-5.855469-5.859375-15.355469-5.859375-21.210938 0-5.859375 5.855469-5.859375 15.351563 0 21.210938l19.390625 19.394531-19.390625 19.394531c-5.859375 5.855469-5.859375 15.355469 0 21.210938zm0 0"/><path d="m415.070312 319.585938c-6.894531-4.59375-16.207031-2.734376-20.800781 4.160156-8.34375 12.515625-26.679687 12.539062-35.039062 0-20.203125-30.304688-64.777344-30.28125-84.960938 0-8.34375 12.515625-26.679687 12.539062-35.039062 0-20.203125-30.304688-64.777344-30.28125-84.960938 0-8.34375 12.515625-26.679687 12.539062-35.039062 0-4.597657-6.894532-13.910157-8.753906-20.800781-4.160156-6.894532 4.59375-8.757813 13.90625-4.160157 20.800781 20.203125 30.304687 64.773438 30.277343 84.960938 0 8.34375-12.515625 26.679687-12.535157 35.039062 0 20.203125 30.304687 64.773438 30.277343 84.960938 0 8.34375-12.515625 26.679687-12.535157 35.039062 0 20.203125 30.304687 64.773438 30.277343 84.960938 0 4.59375-6.894531 2.734375-16.207031-4.160157-20.800781zm0 0"/></svg>