<svg viewBox="0 0 32 32" fill="none" xmlns="http://www.w3.org/2000/svg">
    <path
        d="M16 10.6667C17.4667 10.6667 18.6667 9.46666 18.6667 7.99999C18.6667 6.53333 17.4667 5.33333 16 5.33333C14.5333 5.33333 13.3333 6.53333 13.3333 7.99999C13.3333 9.46666 14.5333 10.6667 16 10.6667ZM16 13.3333C14.5333 13.3333 13.3333 14.5333 13.3333 16C13.3333 17.4667 14.5333 18.6667 16 18.6667C17.4667 18.6667 18.6667 17.4667 18.6667 16C18.6667 14.5333 17.4667 13.3333 16 13.3333ZM16 21.3333C14.5333 21.3333 13.3333 22.5333 13.3333 24C13.3333 25.4667 14.5333 26.6667 16 26.6667C17.4667 26.6667 18.6667 25.4667 18.6667 24C18.6667 22.5333 17.4667 21.3333 16 21.3333Z"
        fill="black" />
</svg>